<svg xmlns="http://www.w3.org/2000/svg" xmlns:xlink="http://www.w3.org/1999/xlink" width="1920" height="1080" viewBox="0 0 1920 1080">
  <defs>
    <clipPath id="clip-path">
      <circle id="Ellipse_1" data-name="Ellipse 1" cx="117.5" cy="117.5" r="117.5" transform="translate(137 156)" fill="#fff"/>
    </clipPath>
    <clipPath id="clip-Web_1920_1">
      <rect width="1920" height="1080"/>
    </clipPath>
  </defs>
  <g id="Web_1920_1" data-name="Web 1920 – 1" clip-path="url(#clip-Web_1920_1)">
    <rect width="1920" height="1080" fill="#a239c5"/>
    <g id="Component_1_1" data-name="Component 1 – 1" transform="translate(156.061 241.836) rotate(-164)">
      <g id="Mask_Group_1" data-name="Mask Group 1" transform="translate(-137 -156)" clip-path="url(#clip-path)">
        <g id="Group_1" data-name="Group 1">
          <path id="Polygon_1" data-name="Polygon 1" d="M117.5,0,235,118H0Z" transform="translate(372 274) rotate(-180)" fill="#c211ff"/>
          <path id="Polygon_2" data-name="Polygon 2" d="M117.5,0,235,118H0Z" transform="translate(137 274)" fill="#ce41ff"/>
          <path id="Polygon_3" data-name="Polygon 3" d="M117.5,0,235,118H0Z" transform="translate(255.5 156.5) rotate(90)" fill="#d869ff"/>
          <path id="Path_1" data-name="Path 1" d="M117.575-.287l117.85,117.712-235.812-.15Z" transform="translate(254.5 391.5) rotate(-90)" fill="#a239c5"/>
        </g>
      </g>
    </g>
    <g id="Component_1_2" data-name="Component 1 – 2" transform="matrix(-0.875, 0.485, -0.485, -0.875, 1346.233, 1073.303)">
      <g id="Mask_Group_1-2" data-name="Mask Group 1" transform="translate(-137 -156)" clip-path="url(#clip-path)">
        <g id="Group_1-2" data-name="Group 1">
          <path id="Polygon_1-2" data-name="Polygon 1" d="M117.5,0,235,118H0Z" transform="translate(372 274) rotate(-180)" fill="#c211ff"/>
          <path id="Polygon_2-2" data-name="Polygon 2" d="M117.5,0,235,118H0Z" transform="translate(137 274)" fill="#ce41ff"/>
          <path id="Polygon_3-2" data-name="Polygon 3" d="M117.5,0,235,118H0Z" transform="translate(255.5 156.5) rotate(90)" fill="#d869ff"/>
          <path id="Path_1-2" data-name="Path 1" d="M117.575-.287l117.85,117.712-235.812-.15Z" transform="translate(254.5 391.5) rotate(-90)" fill="#a239c5"/>
        </g>
      </g>
    </g>
    <g id="Component_1_3" data-name="Component 1 – 3" transform="matrix(0.469, -0.883, 0.883, 0.469, 1369.591, 111.083)">
      <g id="Mask_Group_1-3" data-name="Mask Group 1" transform="translate(-137 -156)" clip-path="url(#clip-path)">
        <g id="Group_1-3" data-name="Group 1">
          <path id="Polygon_1-3" data-name="Polygon 1" d="M117.5,0,235,118H0Z" transform="translate(372 274) rotate(-180)" fill="#c211ff"/>
          <path id="Polygon_2-3" data-name="Polygon 2" d="M117.5,0,235,118H0Z" transform="translate(137 274)" fill="#ce41ff"/>
          <path id="Polygon_3-3" data-name="Polygon 3" d="M117.5,0,235,118H0Z" transform="translate(255.5 156.5) rotate(90)" fill="#d869ff"/>
          <path id="Path_1-3" data-name="Path 1" d="M117.575-.287l117.85,117.712-235.812-.15Z" transform="translate(254.5 391.5) rotate(-90)" fill="#a239c5"/>
        </g>
      </g>
    </g>
    <g id="Ellipse_3" data-name="Ellipse 3" transform="translate(1806 696)" fill="none" stroke="#ce41ff" stroke-width="35">
      <circle cx="93" cy="93" r="93" stroke="none"/>
      <circle cx="93" cy="93" r="75.5" fill="none"/>
    </g>
    <g id="Ellipse_4" data-name="Ellipse 4" transform="translate(-44 403)" fill="none" stroke="#ce41ff" stroke-width="35">
      <circle cx="93" cy="93" r="93" stroke="none"/>
      <circle cx="93" cy="93" r="75.5" fill="none"/>
    </g>
    <g id="Ellipse_3-2" data-name="Ellipse 3" transform="translate(-70 987)" fill="none" stroke="rgba(206,65,255,0.57)" stroke-width="35">
      <circle cx="93" cy="93" r="93" stroke="none"/>
      <circle cx="93" cy="93" r="75.5" fill="none"/>
    </g>
    <g id="Component_2_3" data-name="Component 2 – 3" transform="translate(1827 97)">
      <g id="Ellipse_3-3" data-name="Ellipse 3" fill="none" stroke="rgba(206,65,255,0.57)" stroke-width="35">
        <circle cx="93" cy="93" r="93" stroke="none"/>
        <circle cx="93" cy="93" r="75.5" fill="none"/>
      </g>
    </g>
    <rect id="Rectangle_1" data-name="Rectangle 1" width="431" height="116" transform="translate(873.703 -160.64) rotate(25)" fill="rgba(216,105,255,0.69)"/>
    <rect id="Rectangle_2" data-name="Rectangle 2" width="431" height="116" transform="matrix(0.998, 0.07, -0.07, 0.998, 297.571, 971.109)" fill="rgba(216,105,255,0.69)"/>
    <path id="Polygon_4" data-name="Polygon 4" d="M85.5,0,171,148H0Z" transform="matrix(0.809, 0.588, -0.588, 0.809, 466.825, -127.123)" fill="#c211ff"/>
    <path id="Polygon_5" data-name="Polygon 5" d="M85.5,0,171,148H0Z" transform="matrix(0.891, -0.454, 0.454, 0.891, 1522.724, 1000.882)" fill="#c211ff"/>
  </g>
</svg>
