<svg xmlns="http://www.w3.org/2000/svg" xmlns:xlink="http://www.w3.org/1999/xlink" viewBox="0 0 540 150"><defs><style>.cls-1{fill:url(#linear-gradient);}.cls-2{fill:#7a869a;}</style><linearGradient id="linear-gradient" x1="29.07" y1="69.85" x2="11.94" y2="99.52" gradientUnits="userSpaceOnUse"><stop offset="0" stop-color="#344563"/><stop offset="0.92" stop-color="#7a869a"/></linearGradient></defs><title>atlassian-logo-gradient-horizontal-neutral</title><g id="Logos"><path class="cls-1" d="M20.18,64.84a1.89,1.89,0,0,0-3.21.35L.74,97.64a2,2,0,0,0,1.74,2.81h22.6a1.87,1.87,0,0,0,1.73-1.07C31.69,89.3,28.73,74,20.18,64.84Z"/><path class="cls-2" d="M32.08,35.32a42.82,42.82,0,0,0-2.5,42.26l10.9,21.8a1.94,1.94,0,0,0,1.74,1.07H64.81a1.94,1.94,0,0,0,1.74-2.81S36.15,36.83,35.38,35.31A1.83,1.83,0,0,0,32.08,35.32Z"/><polygon class="cls-2" points="493.03 46.01 493.03 100.45 504.63 100.45 504.63 58.94 509.52 69.96 525.93 100.45 540.51 100.45 540.51 46.01 528.91 46.01 528.91 81.14 524.52 70.95 511.35 46.01 493.03 46.01"/><rect class="cls-2" x="406.58" y="46.01" width="12.68" height="54.44"/><path class="cls-2" d="M392,84.38c0-9.53-5.06-14-19.31-17.07-7.87-1.74-9.77-3.48-9.77-6,0-3.15,2.81-4.47,8-4.47,6.3,0,12.51,1.9,18.4,4.55V48.91a41.64,41.64,0,0,0-18-3.73c-14.09,0-21.38,6.14-21.38,16.16,0,8,3.73,14.42,18.31,17.24,8.7,1.82,10.52,3.23,10.52,6.13s-1.82,4.64-7.95,4.64a44.93,44.93,0,0,1-21.13-5.72V96.72c4.39,2.16,10.19,4.56,21,4.56,15.25,0,21.3-6.79,21.3-16.9"/><path class="cls-2" d="M339.17,84.38c0-9.53-5.05-14-19.3-17.07-7.87-1.74-9.78-3.48-9.78-6,0-3.15,2.82-4.47,8-4.47,6.3,0,12.51,1.9,18.39,4.55V48.91a41.57,41.57,0,0,0-18-3.73c-14.08,0-21.37,6.14-21.37,16.16,0,8,3.72,14.42,18.31,17.24,8.7,1.82,10.52,3.23,10.52,6.13s-1.82,4.64-7.95,4.64a44.93,44.93,0,0,1-21.13-5.72V96.72c4.39,2.16,10.19,4.56,21,4.56,15.25,0,21.29-6.79,21.29-16.9"/><polygon class="cls-2" points="198.68 46.01 198.68 100.45 224.74 100.45 228.84 88.69 211.44 88.69 211.44 46.01 198.68 46.01"/><polygon class="cls-2" points="147.2 46.01 147.2 57.78 161.29 57.78 161.29 100.45 174.05 100.45 174.05 57.78 189.13 57.78 189.13 46.01 147.2 46.01"/><path class="cls-2" d="M128.7,46H112L93,100.45h14.5l2.69-9.17a36,36,0,0,0,20.3,0l2.69,9.17h14.5Zm-8.36,35.46a24.79,24.79,0,0,1-7-1l7-23.77,7,23.77A24.67,24.67,0,0,1,120.34,81.47Z"/><path class="cls-2" d="M269.66,46H252.94l-19,54.44h14.5l2.69-9.17a36,36,0,0,0,20.3,0l2.69,9.17h14.5ZM261.3,81.47a24.79,24.79,0,0,1-7-1l7-23.77,7,23.77A24.79,24.79,0,0,1,261.3,81.47Z"/><path class="cls-2" d="M464.94,46H448.21l-19,54.44h14.5l2.69-9.17a36,36,0,0,0,20.31,0l2.69,9.17h14.5Zm-8.36,35.46a24.69,24.69,0,0,1-7-1l7-23.77,7,23.77A24.67,24.67,0,0,1,456.58,81.47Z"/></g></svg>